<?xml version="1.0" encoding="UTF-8" standalone="no"?>
<!DOCTYPE svg PUBLIC "-//W3C//DTD SVG 1.1//EN"
 "http://www.w3.org/Graphics/SVG/1.1/DTD/svg11.dtd">
<!-- Generated by graphviz version 7.0.6 (20230106.0513)
 -->
<!-- Title: dependency&#45;cruiser output Pages: 1 -->
<svg width="614pt" height="344pt"
 viewBox="0.00 0.00 614.00 344.00" xmlns="http://www.w3.org/2000/svg" xmlns:xlink="http://www.w3.org/1999/xlink">
<g id="graph0" class="graph" transform="scale(1 1) rotate(0) translate(4 340)">
<title>dependency&#45;cruiser output</title>
<polygon fill="white" stroke="none" points="-4,4 -4,-340 610,-340 610,4 -4,4"/>
<g id="clust1" class="cluster">
<title>cluster_src</title>
<path fill="#ffffff" stroke="black" stroke-width="2" d="M20,-8C20,-8 586,-8 586,-8 592,-8 598,-14 598,-20 598,-20 598,-316 598,-316 598,-322 592,-328 586,-328 586,-328 20,-328 20,-328 14,-328 8,-322 8,-316 8,-316 8,-20 8,-20 8,-14 14,-8 20,-8"/>
<text text-anchor="middle" x="303" y="-316.8" font-family="Helvetica,sans-Serif" font-weight="bold" font-size="9.00">src</text>
</g>
<g id="clust3" class="cluster">
<title>cluster_src/controllers</title>
<path fill="#ffffff" stroke="black" stroke-width="2" d="M191,-153C191,-153 290,-153 290,-153 296,-153 302,-159 302,-165 302,-165 302,-223 302,-223 302,-229 296,-235 290,-235 290,-235 191,-235 191,-235 185,-235 179,-229 179,-223 179,-223 179,-165 179,-165 179,-159 185,-153 191,-153"/>
<text text-anchor="middle" x="240.5" y="-223.8" font-family="Helvetica,sans-Serif" font-weight="bold" font-size="9.00">controllers</text>
</g>
<g id="clust2" class="cluster">
<title>cluster_src/config</title>
<path fill="#ffffff" stroke="black" stroke-width="2" d="M376.5,-16C376.5,-16 433.5,-16 433.5,-16 439.5,-16 445.5,-22 445.5,-28 445.5,-28 445.5,-86 445.5,-86 445.5,-92 439.5,-98 433.5,-98 433.5,-98 376.5,-98 376.5,-98 370.5,-98 364.5,-92 364.5,-86 364.5,-86 364.5,-28 364.5,-28 364.5,-22 370.5,-16 376.5,-16"/>
<text text-anchor="middle" x="405" y="-86.8" font-family="Helvetica,sans-Serif" font-weight="bold" font-size="9.00">config</text>
</g>
<g id="clust4" class="cluster">
<title>cluster_src/middleware</title>
<path fill="#ffffff" stroke="black" stroke-width="2" d="M322,-106C322,-106 488,-106 488,-106 494,-106 500,-112 500,-118 500,-118 500,-266 500,-266 500,-272 494,-278 488,-278 488,-278 322,-278 322,-278 316,-278 310,-272 310,-266 310,-266 310,-118 310,-118 310,-112 316,-106 322,-106"/>
<text text-anchor="middle" x="405" y="-266.8" font-family="Helvetica,sans-Serif" font-weight="bold" font-size="9.00">middleware</text>
</g>
<g id="clust5" class="cluster">
<title>cluster_src/middleware/validation</title>
<path fill="#ffffff" stroke="black" stroke-width="2" d="M330,-170C330,-170 480,-170 480,-170 486,-170 492,-176 492,-182 492,-182 492,-240 492,-240 492,-246 486,-252 480,-252 480,-252 330,-252 330,-252 324,-252 318,-246 318,-240 318,-240 318,-182 318,-182 318,-176 324,-170 330,-170"/>
<text text-anchor="middle" x="405" y="-240.8" font-family="Helvetica,sans-Serif" font-weight="bold" font-size="9.00">validation</text>
</g>
<g id="clust6" class="cluster">
<title>cluster_src/models</title>
<path fill="#ffffff" stroke="black" stroke-width="2" d="M520,-195C520,-195 578,-195 578,-195 584,-195 590,-201 590,-207 590,-207 590,-265 590,-265 590,-271 584,-277 578,-277 578,-277 520,-277 520,-277 514,-277 508,-271 508,-265 508,-265 508,-207 508,-207 508,-201 514,-195 520,-195"/>
<text text-anchor="middle" x="549" y="-265.8" font-family="Helvetica,sans-Serif" font-weight="bold" font-size="9.00">models</text>
</g>
<g id="clust7" class="cluster">
<title>cluster_src/routes</title>
<path fill="#ffffff" stroke="black" stroke-width="2" d="M90,-153C90,-153 159,-153 159,-153 165,-153 171,-159 171,-165 171,-165 171,-193 171,-193 171,-199 165,-205 159,-205 159,-205 90,-205 90,-205 84,-205 78,-199 78,-193 78,-193 78,-165 78,-165 78,-159 84,-153 90,-153"/>
<text text-anchor="middle" x="124.5" y="-193.8" font-family="Helvetica,sans-Serif" font-weight="bold" font-size="9.00">routes</text>
</g>
<!-- src/app.js -->
<g id="node1" class="node">
<title>src/app.js</title>
<g id="a_node1"><a xlink:href="src/app.js" xlink:title="app.js">
<path fill="#ffffcc" stroke="black" d="M64,-72C64,-72 22,-72 22,-72 19,-72 16,-69 16,-66 16,-66 16,-60 16,-60 16,-57 19,-54 22,-54 22,-54 64,-54 64,-54 67,-54 70,-57 70,-60 70,-60 70,-66 70,-66 70,-69 67,-72 64,-72"/>
<text text-anchor="start" x="30" y="-60.8" font-family="Helvetica,sans-Serif" font-size="9.00">app.js</text>
</a>
</g>
</g>
<!-- src/config/database.js -->
<g id="node2" class="node">
<title>src/config/database.js</title>
<g id="a_node2"><a xlink:href="src/config/database.js" xlink:title="database.js">
<path fill="#ffffcc" stroke="black" d="M431.5,-42C431.5,-42 378.5,-42 378.5,-42 375.5,-42 372.5,-39 372.5,-36 372.5,-36 372.5,-30 372.5,-30 372.5,-27 375.5,-24 378.5,-24 378.5,-24 431.5,-24 431.5,-24 434.5,-24 437.5,-27 437.5,-30 437.5,-30 437.5,-36 437.5,-36 437.5,-39 434.5,-42 431.5,-42"/>
<text text-anchor="start" x="380.5" y="-30.8" font-family="Helvetica,sans-Serif" font-size="9.00">database.js</text>
</a>
</g>
</g>
<!-- src/app.js&#45;&gt;src/config/database.js -->
<g id="edge1" class="edge">
<title>src/app.js&#45;&gt;src/config/database.js</title>
<path fill="none" stroke="#000000" stroke-width="2" stroke-opacity="0.200000" d="M70.36,-60.66C72.94,-60.44 75.52,-60.21 78,-60 180.74,-51.21 301.74,-41.31 363.41,-36.29"/>
<polygon fill="#000000" fill-opacity="0.200000" stroke="#000000" stroke-width="2" stroke-opacity="0.200000" points="363.24,-38.41 369.05,-35.83 362.9,-34.23 363.24,-38.41"/>
</g>
<!-- src/config/passport.js -->
<g id="node3" class="node">
<title>src/config/passport.js</title>
<g id="a_node3"><a xlink:href="src/config/passport.js" xlink:title="passport.js">
<path fill="#ffffcc" stroke="black" d="M430.5,-72C430.5,-72 379.5,-72 379.5,-72 376.5,-72 373.5,-69 373.5,-66 373.5,-66 373.5,-60 373.5,-60 373.5,-57 376.5,-54 379.5,-54 379.5,-54 430.5,-54 430.5,-54 433.5,-54 436.5,-57 436.5,-60 436.5,-60 436.5,-66 436.5,-66 436.5,-69 433.5,-72 430.5,-72"/>
<text text-anchor="start" x="381.5" y="-60.8" font-family="Helvetica,sans-Serif" font-size="9.00">passport.js</text>
</a>
</g>
</g>
<!-- src/app.js&#45;&gt;src/config/passport.js -->
<g id="edge2" class="edge">
<title>src/app.js&#45;&gt;src/config/passport.js</title>
<path fill="none" stroke="#000000" stroke-width="2" stroke-opacity="0.200000" d="M70.47,-63C133.12,-63 290.74,-63 364.63,-63"/>
<polygon fill="#000000" fill-opacity="0.200000" stroke="#000000" stroke-width="2" stroke-opacity="0.200000" points="364.18,-65.1 370.18,-63 364.18,-60.9 364.18,-65.1"/>
</g>
<!-- src/routes/index.routes.js -->
<g id="node4" class="node">
<title>src/routes/index.routes.js</title>
<g id="a_node4"><a xlink:href="src/routes/index.routes.js" xlink:title="index.routes.js">
<path fill="#ffffcc" stroke="black" d="M157,-179C157,-179 92,-179 92,-179 89,-179 86,-176 86,-173 86,-173 86,-167 86,-167 86,-164 89,-161 92,-161 92,-161 157,-161 157,-161 160,-161 163,-164 163,-167 163,-167 163,-173 163,-173 163,-176 160,-179 157,-179"/>
<text text-anchor="start" x="94" y="-167.8" font-family="Helvetica,sans-Serif" font-size="9.00">index.routes.js</text>
</a>
</g>
</g>
<!-- src/app.js&#45;&gt;src/routes/index.routes.js -->
<g id="edge3" class="edge">
<title>src/app.js&#45;&gt;src/routes/index.routes.js</title>
<path fill="none" stroke="#000000" stroke-width="2" stroke-opacity="0.200000" d="M44.63,-72.25C46.41,-91.02 53.14,-133.79 78,-157 78.14,-157.13 78.29,-157.26 78.43,-157.4"/>
<polygon fill="#000000" fill-opacity="0.200000" stroke="#000000" stroke-width="2" stroke-opacity="0.200000" points="77.06,-159 83.19,-160.69 79.45,-155.54 77.06,-159"/>
</g>
<!-- src/models/user.js -->
<g id="node5" class="node">
<title>src/models/user.js</title>
<g id="a_node5"><a xlink:href="src/models/user.js" xlink:title="user.js">
<path fill="#ffffcc" stroke="black" d="M570,-221C570,-221 528,-221 528,-221 525,-221 522,-218 522,-215 522,-215 522,-209 522,-209 522,-206 525,-203 528,-203 528,-203 570,-203 570,-203 573,-203 576,-206 576,-209 576,-209 576,-215 576,-215 576,-218 573,-221 570,-221"/>
<text text-anchor="start" x="534.5" y="-209.8" font-family="Helvetica,sans-Serif" font-size="9.00">user.js</text>
</a>
</g>
</g>
<!-- src/config/passport.js&#45;&gt;src/models/user.js -->
<g id="edge4" class="edge">
<title>src/config/passport.js&#45;&gt;src/models/user.js</title>
<path fill="none" stroke="#000000" stroke-width="2" stroke-opacity="0.200000" d="M436.84,-69.83C457.01,-75.67 482.71,-85.93 500,-103 525.86,-128.54 538.84,-170.4 544.43,-194.12"/>
<polygon fill="#000000" fill-opacity="0.200000" stroke="#000000" stroke-width="2" stroke-opacity="0.200000" points="542.35,-194.44 545.69,-199.85 546.45,-193.54 542.35,-194.44"/>
</g>
<!-- src/controllers/messageController.js -->
<g id="node6" class="node">
<title>src/controllers/messageController.js</title>
<g id="a_node6"><a xlink:href="src/controllers/messageController.js" xlink:title="messageController.js">
<path fill="#ffffcc" stroke="black" d="M288,-209C288,-209 193,-209 193,-209 190,-209 187,-206 187,-203 187,-203 187,-197 187,-197 187,-194 190,-191 193,-191 193,-191 288,-191 288,-191 291,-191 294,-194 294,-197 294,-197 294,-203 294,-203 294,-206 291,-209 288,-209"/>
<text text-anchor="start" x="195" y="-197.8" font-family="Helvetica,sans-Serif" font-size="9.00">messageController.js</text>
</a>
</g>
</g>
<!-- src/routes/index.routes.js&#45;&gt;src/controllers/messageController.js -->
<g id="edge13" class="edge">
<title>src/routes/index.routes.js&#45;&gt;src/controllers/messageController.js</title>
<path fill="none" stroke="#000000" stroke-width="2" stroke-opacity="0.200000" d="M158.56,-179.44C165.31,-181.32 172.38,-183.25 179,-185 183.27,-186.13 187.72,-187.28 192.18,-188.41"/>
<polygon fill="#000000" fill-opacity="0.200000" stroke="#000000" stroke-width="2" stroke-opacity="0.200000" points="191.46,-190.4 197.79,-189.83 192.49,-186.33 191.46,-190.4"/>
</g>
<!-- src/controllers/userController.js -->
<g id="node10" class="node">
<title>src/controllers/userController.js</title>
<g id="a_node10"><a xlink:href="src/controllers/userController.js" xlink:title="userController.js">
<path fill="#ffffcc" stroke="black" d="M277.5,-179C277.5,-179 203.5,-179 203.5,-179 200.5,-179 197.5,-176 197.5,-173 197.5,-173 197.5,-167 197.5,-167 197.5,-164 200.5,-161 203.5,-161 203.5,-161 277.5,-161 277.5,-161 280.5,-161 283.5,-164 283.5,-167 283.5,-167 283.5,-173 283.5,-173 283.5,-176 280.5,-179 277.5,-179"/>
<text text-anchor="start" x="205.5" y="-167.8" font-family="Helvetica,sans-Serif" font-size="9.00">userController.js</text>
</a>
</g>
</g>
<!-- src/routes/index.routes.js&#45;&gt;src/controllers/userController.js -->
<g id="edge14" class="edge">
<title>src/routes/index.routes.js&#45;&gt;src/controllers/userController.js</title>
<path fill="none" stroke="#000000" stroke-width="2" stroke-opacity="0.200000" d="M163.46,-170C171.45,-170 180.01,-170 188.39,-170"/>
<polygon fill="#000000" fill-opacity="0.200000" stroke="#000000" stroke-width="2" stroke-opacity="0.200000" points="188.36,-172.1 194.36,-170 188.36,-167.9 188.36,-172.1"/>
</g>
<!-- src/middleware/authenticate.middleware.js -->
<g id="node7" class="node">
<title>src/middleware/authenticate.middleware.js</title>
<g id="a_node7"><a xlink:href="src/middleware/authenticate.middleware.js" xlink:title="authenticate.middleware.js">
<path fill="#ffffcc" stroke="black" d="M463,-162C463,-162 347,-162 347,-162 344,-162 341,-159 341,-156 341,-156 341,-150 341,-150 341,-147 344,-144 347,-144 347,-144 463,-144 463,-144 466,-144 469,-147 469,-150 469,-150 469,-156 469,-156 469,-159 466,-162 463,-162"/>
<text text-anchor="start" x="349" y="-150.8" font-family="Helvetica,sans-Serif" font-size="9.00">authenticate.middleware.js</text>
</a>
</g>
</g>
<!-- src/controllers/messageController.js&#45;&gt;src/middleware/authenticate.middleware.js -->
<g id="edge5" class="edge">
<title>src/controllers/messageController.js&#45;&gt;src/middleware/authenticate.middleware.js</title>
<path fill="none" stroke="#000000" stroke-width="2" stroke-opacity="0.200000" d="M293.6,-190.6C296.59,-189.01 299.43,-187.16 302,-185 308.71,-179.37 303.03,-172.3 310,-167 316.63,-161.96 324.3,-158.36 332.34,-155.83"/>
<polygon fill="#000000" fill-opacity="0.200000" stroke="#000000" stroke-width="2" stroke-opacity="0.200000" points="332.64,-157.93 337.9,-154.35 331.56,-153.87 332.64,-157.93"/>
</g>
<!-- src/middleware/validation/messageValidation.middleware.js -->
<g id="node8" class="node">
<title>src/middleware/validation/messageValidation.middleware.js</title>
<g id="a_node8"><a xlink:href="src/middleware/validation/messageValidation.middleware.js" xlink:title="messageValidation.middleware.js">
<path fill="#ffffcc" stroke="black" d="M478,-226C478,-226 332,-226 332,-226 329,-226 326,-223 326,-220 326,-220 326,-214 326,-214 326,-211 329,-208 332,-208 332,-208 478,-208 478,-208 481,-208 484,-211 484,-214 484,-214 484,-220 484,-220 484,-223 481,-226 478,-226"/>
<text text-anchor="start" x="334" y="-214.8" font-family="Helvetica,sans-Serif" font-size="9.00">messageValidation.middleware.js</text>
</a>
</g>
</g>
<!-- src/controllers/messageController.js&#45;&gt;src/middleware/validation/messageValidation.middleware.js -->
<g id="edge6" class="edge">
<title>src/controllers/messageController.js&#45;&gt;src/middleware/validation/messageValidation.middleware.js</title>
<path fill="none" stroke="#000000" stroke-width="2" stroke-opacity="0.200000" d="M294.26,-205.52C301.45,-206.27 308.99,-207.06 316.6,-207.86"/>
<polygon fill="#000000" fill-opacity="0.200000" stroke="#000000" stroke-width="2" stroke-opacity="0.200000" points="316.35,-209.94 322.53,-208.48 316.78,-205.76 316.35,-209.94"/>
</g>
<!-- src/models/message.js -->
<g id="node9" class="node">
<title>src/models/message.js</title>
<g id="a_node9"><a xlink:href="src/models/message.js" xlink:title="message.js">
<path fill="#ffffcc" stroke="black" d="M576,-251C576,-251 522,-251 522,-251 519,-251 516,-248 516,-245 516,-245 516,-239 516,-239 516,-236 519,-233 522,-233 522,-233 576,-233 576,-233 579,-233 582,-236 582,-239 582,-239 582,-245 582,-245 582,-248 579,-251 576,-251"/>
<text text-anchor="start" x="524" y="-239.8" font-family="Helvetica,sans-Serif" font-size="9.00">message.js</text>
</a>
</g>
</g>
<!-- src/controllers/messageController.js&#45;&gt;src/models/message.js -->
<g id="edge7" class="edge">
<title>src/controllers/messageController.js&#45;&gt;src/models/message.js</title>
<path fill="none" stroke="#000000" stroke-width="2" stroke-opacity="0.200000" d="M245.06,-209.21C253.15,-228.64 274.96,-273.52 310,-291 385.56,-328.7 422.15,-323.72 500,-291 515.52,-284.48 528.54,-270.21 537.08,-258.75"/>
<polygon fill="#000000" fill-opacity="0.200000" stroke="#000000" stroke-width="2" stroke-opacity="0.200000" points="538.78,-259.98 540.52,-253.87 535.35,-257.57 538.78,-259.98"/>
</g>
<!-- src/controllers/userController.js&#45;&gt;src/config/passport.js -->
<g id="edge8" class="edge">
<title>src/controllers/userController.js&#45;&gt;src/config/passport.js</title>
<path fill="none" stroke="#000000" stroke-width="2" stroke-opacity="0.200000" d="M284,-167.7C290.78,-165.54 297.15,-162.17 302,-157 318.59,-139.3 295.17,-122.2 310,-103 323.26,-85.84 345.3,-75.95 364.7,-70.29"/>
<polygon fill="#000000" fill-opacity="0.200000" stroke="#000000" stroke-width="2" stroke-opacity="0.200000" points="365.21,-72.33 370.47,-68.76 364.13,-68.27 365.21,-72.33"/>
</g>
<!-- src/controllers/userController.js&#45;&gt;src/models/user.js -->
<g id="edge11" class="edge">
<title>src/controllers/userController.js&#45;&gt;src/models/user.js</title>
<path fill="none" stroke="#000000" stroke-width="2" stroke-opacity="0.200000" d="M283.91,-173.55C290.79,-175.93 297.21,-179.55 302,-185 312.33,-196.76 298.32,-244.58 310,-255 341.51,-283.11 466.29,-280.43 500,-255 510.33,-247.21 499.22,-236.51 508,-227 509.74,-225.11 511.75,-223.46 513.92,-222.01"/>
<polygon fill="#000000" fill-opacity="0.200000" stroke="#000000" stroke-width="2" stroke-opacity="0.200000" points="514.75,-223.94 519.07,-219.27 512.78,-220.23 514.75,-223.94"/>
</g>
<!-- src/controllers/userController.js&#45;&gt;src/middleware/authenticate.middleware.js -->
<g id="edge9" class="edge">
<title>src/controllers/userController.js&#45;&gt;src/middleware/authenticate.middleware.js</title>
<path fill="none" stroke="#000000" stroke-width="2" stroke-opacity="0.200000" d="M283.77,-165.58C298.59,-164.03 315.67,-162.24 332.22,-160.51"/>
<polygon fill="#000000" fill-opacity="0.200000" stroke="#000000" stroke-width="2" stroke-opacity="0.200000" points="332.05,-162.64 337.8,-159.93 331.61,-158.46 332.05,-162.64"/>
</g>
<!-- src/middleware/validation/userValidation.middleware.js -->
<g id="node11" class="node">
<title>src/middleware/validation/userValidation.middleware.js</title>
<g id="a_node11"><a xlink:href="src/middleware/validation/userValidation.middleware.js" xlink:title="userValidation.middleware.js">
<path fill="#ffffcc" stroke="black" d="M467.5,-196C467.5,-196 342.5,-196 342.5,-196 339.5,-196 336.5,-193 336.5,-190 336.5,-190 336.5,-184 336.5,-184 336.5,-181 339.5,-178 342.5,-178 342.5,-178 467.5,-178 467.5,-178 470.5,-178 473.5,-181 473.5,-184 473.5,-184 473.5,-190 473.5,-190 473.5,-193 470.5,-196 467.5,-196"/>
<text text-anchor="start" x="344.5" y="-184.8" font-family="Helvetica,sans-Serif" font-size="9.00">userValidation.middleware.js</text>
</a>
</g>
</g>
<!-- src/controllers/userController.js&#45;&gt;src/middleware/validation/userValidation.middleware.js -->
<g id="edge10" class="edge">
<title>src/controllers/userController.js&#45;&gt;src/middleware/validation/userValidation.middleware.js</title>
<path fill="none" stroke="#000000" stroke-width="2" stroke-opacity="0.200000" d="M283.77,-174.42C297.13,-175.82 312.34,-177.41 327.34,-178.98"/>
<polygon fill="#000000" fill-opacity="0.200000" stroke="#000000" stroke-width="2" stroke-opacity="0.200000" points="326.94,-181.05 333.12,-179.58 327.37,-176.87 326.94,-181.05"/>
</g>
<!-- src/middleware/validation/userValidation.middleware.js&#45;&gt;src/models/user.js -->
<g id="edge12" class="edge">
<title>src/middleware/validation/userValidation.middleware.js&#45;&gt;src/models/user.js</title>
<path fill="none" stroke="#000000" stroke-width="2" stroke-opacity="0.200000" d="M468.01,-196.47C478.69,-198.22 489.68,-200.1 500,-202 504.18,-202.77 508.55,-203.62 512.88,-204.48"/>
<polygon fill="#000000" fill-opacity="0.200000" stroke="#000000" stroke-width="2" stroke-opacity="0.200000" points="512.37,-206.52 518.67,-205.67 513.21,-202.41 512.37,-206.52"/>
</g>
<!-- src/middleware/authorize.middleware.js -->
<g id="node12" class="node">
<title>src/middleware/authorize.middleware.js</title>
<g id="a_node12"><a xlink:href="src/middleware/authorize.middleware.js" xlink:title="authorize.middleware.js">
<path fill="#ccffcc" stroke="black" d="M456.5,-132C456.5,-132 353.5,-132 353.5,-132 350.5,-132 347.5,-129 347.5,-126 347.5,-126 347.5,-120 347.5,-120 347.5,-117 350.5,-114 353.5,-114 353.5,-114 456.5,-114 456.5,-114 459.5,-114 462.5,-117 462.5,-120 462.5,-120 462.5,-126 462.5,-126 462.5,-129 459.5,-132 456.5,-132"/>
<text text-anchor="start" x="355.5" y="-120.8" font-family="Helvetica,sans-Serif" font-size="9.00">authorize.middleware.js</text>
</a>
</g>
</g>
</g>
</svg>
